<svg width="24" height="25" viewBox="0 0 24 25" fill="none" xmlns="http://www.w3.org/2000/svg">
<path d="M12 2.04443C6.48 2.04443 2 6.52443 2 12.0444C2 17.5644 6.48 22.0444 12 22.0444C17.52 22.0444 22 17.5644 22 12.0444C22 6.52443 17.52 2.04443 12 2.04443ZM16.03 10.2444L11.36 14.9044C11.22 15.0544 11.03 15.1245 10.83 15.1245C10.64 15.1245 10.45 15.0544 10.3 14.9044L7.97 12.5745C7.68 12.2845 7.68 11.8044 7.97 11.5144C8.26 11.2244 8.74 11.2244 9.03 11.5144L10.83 13.3145L14.97 9.18445C15.26 8.88445 15.74 8.88445 16.03 9.18445C16.32 9.47445 16.32 9.94445 16.03 10.2444Z" fill="white"/>
</svg>
