<svg width="20" height="20" viewBox="0 0 20 20" fill="none" xmlns="http://www.w3.org/2000/svg">
<path d="M15.4415 14.5583C15.6856 14.8025 15.6856 15.1984 15.4415 15.4425C15.3198 15.5642 15.1598 15.6258 14.9998 15.6258C14.8398 15.6258 14.6798 15.565 14.5581 15.4425L9.99979 10.8842L5.44146 15.4425C5.31979 15.5642 5.15979 15.6258 4.99979 15.6258C4.83979 15.6258 4.67979 15.565 4.55813 15.4425C4.31396 15.1984 4.31396 14.8025 4.55813 14.5583L9.11646 10L4.55813 5.44171C4.31396 5.19754 4.31396 4.80168 4.55813 4.55751C4.80229 4.31335 5.19813 4.31335 5.4423 4.55751L10.0006 9.11587L14.559 4.55751C14.8031 4.31335 15.199 4.31335 15.4431 4.55751C15.6873 4.80168 15.6873 5.19754 15.4431 5.44171L10.8848 10L15.4415 14.5583Z" fill="white"/>
</svg>
