<svg width="24" height="25" viewBox="0 0 24 25" fill="none" xmlns="http://www.w3.org/2000/svg">
<path d="M12 1.04455C9.11346 1.01522 6.33338 2.13316 4.27073 4.15268C2.20809 6.1722 1.03166 8.92804 1 11.8146C1.01112 14.0957 1.74494 16.3147 3.09606 18.1527C4.44718 19.9907 6.34608 21.3532 8.52 22.0446C9.07 22.1446 9.27 21.8146 9.27 21.5246V19.6946C6.21 20.3446 5.56 18.2546 5.56 18.2546C5.3563 17.5985 4.92323 17.0376 4.34 16.6746C3.34 16.0146 4.42 16.0246 4.42 16.0246C4.76565 16.0708 5.09635 16.1946 5.38731 16.3869C5.67826 16.5791 5.92192 16.8347 6.1 17.1346C6.41033 17.6727 6.91953 18.0674 7.51801 18.2339C8.11649 18.4003 8.75639 18.3252 9.3 18.0246C9.35591 17.4769 9.60389 16.9668 10 16.5846C7.56 16.3146 5 15.3946 5 11.2646C4.97818 10.1872 5.37624 9.14366 6.11 8.35455C5.77583 7.42962 5.81529 6.41087 6.22 5.51455C6.22 5.51455 7.15 5.22455 9.22 6.61455C11.0219 6.13439 12.9181 6.13439 14.72 6.61455C16.82 5.22455 17.72 5.51455 17.72 5.51455C18.1247 6.41087 18.1642 7.42962 17.83 8.35455C18.5808 9.1292 19.0005 10.1658 19 11.2446C19 15.3846 16.42 16.2946 14 16.5646C14.265 16.8218 14.4697 17.1346 14.5994 17.4804C14.729 17.8262 14.7805 18.1965 14.75 18.5646V21.5146C14.75 21.8646 14.95 22.1446 15.5 22.0346C17.6678 21.339 19.5603 19.9761 20.9072 18.1407C22.2541 16.3053 22.9866 14.0911 23 11.8146C22.9683 8.92804 21.7919 6.1722 19.7293 4.15268C17.6666 2.13316 14.8865 1.01522 12 1.04455Z" fill="#D2D2D4"/>
</svg>
