<svg width="15" height="17" viewBox="0 0 15 17" fill="none" xmlns="http://www.w3.org/2000/svg">
<path d="M13.3333 6.87785H14.1667C14.6269 6.87785 15 7.25093 15 7.71118V16.0445C15 16.5048 14.6269 16.8778 14.1667 16.8778H0.833333C0.3731 16.8778 0 16.5048 0 16.0445V7.71118C0 7.25093 0.3731 6.87785 0.833333 6.87785H1.66667V6.04451C1.66667 2.82286 4.27834 0.211182 7.5 0.211182C10.7217 0.211182 13.3333 2.82286 13.3333 6.04451V6.87785ZM1.66667 8.54451V15.2112H13.3333V8.54451H1.66667ZM6.66667 10.2112H8.33333V13.5445H6.66667V10.2112ZM11.6667 6.87785V6.04451C11.6667 3.74333 9.80117 1.87785 7.5 1.87785C5.19882 1.87785 3.33333 3.74333 3.33333 6.04451V6.87785H11.6667Z" fill="#1C1C26"/>
</svg>
