<svg width="20" height="21" viewBox="0 0 20 21" fill="none" xmlns="http://www.w3.org/2000/svg">
<path d="M1.66699 5.04456C1.66699 4.58456 2.04033 4.21123 2.50033 4.21123H17.5003C17.9603 4.21123 18.3337 4.58456 18.3337 5.04456C18.3337 5.50456 17.9603 5.87789 17.5003 5.87789H2.50033C2.04033 5.87789 1.66699 5.50456 1.66699 5.04456ZM17.5003 9.21123H2.50033C2.04033 9.21123 1.66699 9.58456 1.66699 10.0446C1.66699 10.5046 2.04033 10.8779 2.50033 10.8779H17.5003C17.9603 10.8779 18.3337 10.5046 18.3337 10.0446C18.3337 9.58456 17.9603 9.21123 17.5003 9.21123ZM17.5003 14.2112H2.50033C2.04033 14.2112 1.66699 14.5846 1.66699 15.0446C1.66699 15.5046 2.04033 15.8779 2.50033 15.8779H17.5003C17.9603 15.8779 18.3337 15.5046 18.3337 15.0446C18.3337 14.5846 17.9603 14.2112 17.5003 14.2112Z" fill="white"/>
</svg>
