<svg width="25" height="25" viewBox="0 0 25 25" fill="none" xmlns="http://www.w3.org/2000/svg">
<path d="M16.002 1.54468L3.51367 2.04468C3.50389 2.04504 3.49412 2.04569 3.48438 2.04663C3.47721 2.0472 3.47004 2.04786 3.46289 2.04858C3.21073 2.06638 2.97466 2.17901 2.80217 2.36382C2.62969 2.54862 2.53359 2.79189 2.5332 3.04468V16.9392C2.5332 17.5317 2.70922 18.1107 3.03711 18.6033L5.70117 22.5994C5.79837 22.7451 5.93217 22.8628 6.08916 22.9406C6.24615 23.0185 6.42083 23.0537 6.5957 23.0427L22.5957 22.0427C22.8496 22.0268 23.0879 21.9147 23.262 21.7293C23.4362 21.5439 23.5332 21.2991 23.5332 21.0447V5.54468C23.533 5.29436 23.4389 5.05322 23.2695 4.8689C23.2293 4.81583 23.1788 4.77134 23.1211 4.73804L23.1191 4.73608C23.0607 4.69361 22.9978 4.65759 22.9316 4.62866L18.8301 2.28882L18.8633 2.3103C18.0255 1.74091 17.0185 1.47077 16.0078 1.54468H16.002ZM16.0586 2.54272C16.0645 2.54283 16.0703 2.54283 16.0762 2.54272C16.8635 2.48411 17.6482 2.69298 18.3008 3.13647C18.3116 3.14407 18.3226 3.15124 18.334 3.15796L20.8574 4.59741L7.38867 5.03296L5.00195 2.98608L16.0586 2.54272ZM21.5332 6.57788V20.1052L7.5332 20.9802V7.02905L21.5332 6.57788ZM19.9746 8.54663C18.9606 8.60663 17.9408 8.65618 16.9238 8.73218C16.5898 8.75718 16.3418 9.04604 16.3008 9.36304C16.2818 9.51104 16.3222 9.58737 16.4902 9.59936C16.7982 9.62236 17.1038 9.66588 17.4238 9.70288V15.572C17.3298 15.437 17.2785 15.3657 17.2305 15.2927C15.9205 13.3137 14.6046 11.3383 13.3066 9.35132C13.1106 9.05132 12.9272 8.90693 12.5352 8.95093C11.6182 9.05193 10.6934 9.08201 9.77344 9.15601C9.26344 9.19701 8.96066 9.64366 9.09766 10.1287C9.44266 10.1587 9.79048 10.1895 10.1465 10.2205V18.6521C9.91248 18.7181 9.67936 18.7924 9.44336 18.8494C9.20336 18.9074 9.09092 19.0688 9.04492 19.2908C9.00792 19.4688 9.05153 19.5587 9.26953 19.5427C10.0185 19.4897 10.7715 19.4569 11.5215 19.4119C11.8315 19.3939 12.1423 19.3876 12.4473 19.3376C12.8633 19.2686 13.0898 19.0151 13.1348 18.6091C12.7648 18.5271 12.3926 18.437 12.0176 18.365C11.8506 18.333 11.7939 18.2646 11.7949 18.0916C11.8009 16.1356 11.7998 14.1784 11.8008 12.2224C11.8008 12.1584 11.8142 12.0931 11.8262 11.9861C11.8842 12.0631 11.9077 12.0947 11.9297 12.1287C12.9417 13.6997 13.9508 15.2746 14.9688 16.8416C15.4067 17.5156 15.8554 18.1826 16.3164 18.8416C16.6504 19.3196 17.1403 19.4712 17.6973 19.3552C18.0453 19.2822 18.3797 19.1429 18.7207 19.0349C18.9107 18.9749 18.9658 18.8521 18.9648 18.6521C18.9578 15.7781 18.9609 12.905 18.9609 10.031C18.9609 9.49601 18.9592 9.49647 19.4902 9.38647C19.9782 9.28547 20.1216 9.04663 19.9746 8.54663Z" fill="white"/>
</svg>
