<svg width="240" height="54" viewBox="0 0 240 54" fill="none" xmlns="http://www.w3.org/2000/svg">
<path d="M228.661 0.271484H239.356V10.9664H228.661V0.271484ZM217.966 0.271484H228.661V10.9664H217.966V0.271484ZM207.271 0.271484H217.966V10.9664H207.271V0.271484ZM207.271 10.9664H217.966V21.6613H207.271V10.9664ZM207.271 21.6613H217.966V32.3562H207.271V21.6613ZM207.271 32.3562H217.966V43.0511H207.271V32.3562ZM207.271 43.0511H217.966V53.746H207.271V43.0511ZM217.966 43.0511H228.661V53.746H217.966V43.0511ZM228.661 32.3562H239.356V53.746H228.661V43.0511V32.3562ZM228.661 21.6613H239.356V32.3562H228.661V21.6613Z" fill="url(#paint0_linear_30642_13734)"/>
<path d="M163.773 43.0511H174.468V53.746H163.773V43.0511ZM163.773 32.3562H174.468V43.0511H163.773V32.3562ZM163.773 21.6613H174.468V32.3562H163.773V21.6613ZM163.773 10.9664H174.468V21.6613H163.773V10.9664ZM174.468 0.271484H185.163V10.9664H174.468V0.271484ZM185.163 10.9664H195.858V21.6613H185.163V10.9664ZM185.163 21.6613H195.858V32.3562H185.163V21.6613ZM185.163 32.3562H195.858V43.0511H185.163V32.3562ZM185.163 43.0511H195.858V53.746H185.163V43.0511ZM163.773 0.271484H174.468V10.9664H163.773V0.271484Z" fill="url(#paint1_linear_30642_13734)"/>
<path d="M141.645 0.271484H152.339V10.9664H141.645V0.271484ZM141.645 10.9664H152.339V21.6613H141.645V10.9664ZM141.645 21.6613H152.339V32.3562H141.645V21.6613ZM141.645 32.3562H152.339V43.0511H141.645V32.3562ZM141.645 43.0511H152.339V53.746H141.645V43.0511Z" fill="url(#paint2_linear_30642_13734)"/>
<path d="M76.6641 43.0511H87.359V53.746H76.6641V43.0511ZM76.6641 32.3562H87.359V43.0511H76.6641V32.3562ZM76.6641 21.6613H87.359V32.3562H76.6641V21.6613ZM76.6641 10.9664H87.359V21.6613H76.6641V10.9664ZM98.0539 43.0511H108.749V53.746H98.0539V43.0511ZM98.0539 32.3562H108.749V43.0511H98.0539V32.3562ZM98.0539 21.6613H108.749V32.3562H98.0539V21.6613ZM98.0539 10.9664H108.749V21.6613H98.0539V10.9664ZM119.444 43.0511H130.139V53.746H119.444V43.0511ZM119.444 32.3562H130.139V43.0511H119.444V32.3562ZM119.444 21.6613H130.139V32.3562H119.444V21.6613ZM119.444 10.9664H130.139V21.6613H119.444V10.9664ZM87.359 0.271484H98.0539H119.444V10.9664H130.139H98.0539H87.359V0.271484ZM76.6641 0.271484H87.359V10.9664H76.6641V0.271484Z" fill="url(#paint3_linear_30642_13734)"/>
<path d="M33.168 0.271484H43.8629V10.9664H33.168V0.271484ZM43.8629 0.271484H54.5578V10.9664H43.8629V0.271484ZM54.5578 0.271484H65.2527V10.9664H54.5578V0.271484ZM54.5578 10.9664H65.2527V21.6613H54.5578V10.9664ZM54.5578 21.6613H65.2527V32.3562H54.5578V21.6613ZM54.5578 32.3562H65.2527V43.0511H54.5578V32.3562ZM54.5578 43.0511H65.2527V53.746H54.5578V43.0511ZM43.8629 43.0511H54.5578V53.746H43.8629V43.0511ZM33.168 43.0511H43.8629V53.746H33.168V43.0511ZM33.168 32.3562H43.8629V43.0511H33.168V32.3562ZM33.168 21.6613H43.8629V32.3562H33.168V21.6613ZM33.168 10.9664H43.8629V21.6613H33.168V10.9664Z" fill="url(#paint4_linear_30642_13734)"/>
<path d="M11.0504 0.271484H21.7453V10.9664H11.0504V0.271484ZM0.355469 0.271484H11.0504V10.9664H0.355469V0.271484ZM0.355469 10.9664H11.0504V21.6613H0.355469V10.9664ZM0.355469 21.6613H11.0504V32.3562H0.355469V21.6613ZM0.355469 32.3562H11.0504V43.0511H0.355469V32.3562ZM0.355469 43.0511H11.0504V53.746H0.355469V43.0511ZM11.0504 43.0511H21.7453V53.746H11.0504V43.0511Z" fill="url(#paint5_linear_30642_13734)"/>
<defs>
<linearGradient id="paint0_linear_30642_13734" x1="0.18441" y1="-19.6502" x2="368.513" y2="6.1519" gradientUnits="userSpaceOnUse">
<stop stop-color="#F3F2FF"/>
<stop offset="1" stop-color="#FF6501"/>
</linearGradient>
<linearGradient id="paint1_linear_30642_13734" x1="0.183226" y1="-19.6502" x2="368.512" y2="6.15189" gradientUnits="userSpaceOnUse">
<stop stop-color="#F3F2FF"/>
<stop offset="1" stop-color="#FF6501"/>
</linearGradient>
<linearGradient id="paint2_linear_30642_13734" x1="0.18224" y1="-19.6502" x2="368.511" y2="6.15189" gradientUnits="userSpaceOnUse">
<stop stop-color="#F3F2FF"/>
<stop offset="1" stop-color="#FF6501"/>
</linearGradient>
<linearGradient id="paint3_linear_30642_13734" x1="0.18247" y1="-19.6502" x2="368.511" y2="6.15189" gradientUnits="userSpaceOnUse">
<stop stop-color="#F3F2FF"/>
<stop offset="1" stop-color="#FF6501"/>
</linearGradient>
<linearGradient id="paint4_linear_30642_13734" x1="0.183247" y1="-19.6502" x2="368.512" y2="6.15189" gradientUnits="userSpaceOnUse">
<stop stop-color="#F3F2FF"/>
<stop offset="1" stop-color="#FF6501"/>
</linearGradient>
<linearGradient id="paint5_linear_30642_13734" x1="0.183139" y1="-19.6502" x2="368.512" y2="6.15189" gradientUnits="userSpaceOnUse">
<stop stop-color="#F3F2FF"/>
<stop offset="1" stop-color="#FF6501"/>
</linearGradient>
</defs>
</svg>
