<svg width="380" height="472" viewBox="0 0 380 472" fill="none" xmlns="http://www.w3.org/2000/svg">
<mask id="path-1-inside-1_29945_1667" fill="white">
<rect width="380" height="472" rx="4"/>
</mask>
<rect width="380" height="472" rx="4" fill="#FF6501"/>
<rect width="380" height="472" rx="4" stroke="black" stroke-width="24" mask="url(#path-1-inside-1_29945_1667)"/>
<path fill-rule="evenodd" clip-rule="evenodd" d="M310.001 263.703V199.391L277.845 143.703L222.157 111.547L157.845 111.547L102.157 143.703L70.001 199.391L70.001 263.703H310.001ZM224.418 187.476C224.418 206.254 209.196 221.476 190.418 221.476C171.641 221.476 156.418 206.254 156.418 187.476C156.418 168.699 171.641 153.476 190.418 153.476C209.196 153.476 224.418 168.699 224.418 187.476Z" fill="black"/>
<path d="M73 396H89V412H73V396ZM73 380H89V396H73V380ZM73 364H89V380H73V364ZM73 348H89V364H73V348ZM73 332H89V348H73V332ZM89 332H105V348H89V332ZM105 332H121V348H105V332ZM105 348H121V364H105V348ZM89 364H105V380H89V364ZM105 380H121V396H105V380ZM105 396H121V412H105V396Z" fill="black"/>
<path d="M167 332H183V348H167V332ZM151 332H167V348H151V332ZM135 332H151V348H135V332ZM135 348H151V364H135V348ZM135 364H151V380H135V364ZM135 380H151V396H135V380ZM135 396H151V412H135V396ZM151 396H167V412H151V396ZM167 396H183V412H167V396ZM167 380H183V396H167V380ZM167 364H183V380H167V364ZM151 364H167V380H151V364Z" fill="black"/>
<path d="M197 332H213V348H197V332ZM197 348H213V364H197V348ZM197 364H213V380H197V364ZM197 380H213V396H197V380ZM197 396H213V412H197V396ZM213 332H229V348H213V332ZM229 348H245V364H229V348ZM229 364H245V380H229V364ZM229 380H245V396H229V380ZM213 396H229V412H213V396Z" fill="black"/>
<path d="M259 332H275V348H259V332ZM275 332H291V348H275V332ZM291 332H307V348H291V332ZM291 348H307V364H291V348ZM291 364H307V380H291V364ZM291 380H307V396H291V380ZM291 396H307V412H291V396ZM275 396H291V412H275V396ZM259 396H275V412H259V396ZM259 348H275V364H259V348ZM259 364H275V380H259V364ZM275 364H291V380H275V364Z" fill="black"/>
</svg>
