<svg width="240" height="70" viewBox="0 0 240 70" fill="none" xmlns="http://www.w3.org/2000/svg">
<path d="M225.516 56.035H239.356V69.8754H225.516V56.035ZM225.516 0.67334H239.356V14.5137H225.516V0.67334ZM225.516 14.5137H239.356V28.3541H225.516V14.5137ZM225.516 28.3541H239.356V42.1946H225.516V28.3541Z" fill="url(#paint0_linear_30642_13739)"/>
<path d="M169.225 56.035H183.065V69.8754H169.225V56.035ZM169.225 42.1946H183.065V56.035H169.225V42.1946ZM169.225 28.3541H183.065V42.1946H169.225V28.3541ZM169.225 14.5137H183.065V28.3541H169.225V14.5137ZM183.065 0.67334H196.905V14.5137H183.065V0.67334ZM196.905 14.5137H210.746V28.3541H196.905V14.5137ZM196.905 28.3541H210.746V42.1946H196.905V28.3541ZM196.905 42.1946H210.746V56.035H196.905V42.1946ZM196.905 56.035H210.746V69.8754H196.905V56.035ZM169.225 0.67334H183.065V14.5137H169.225V0.67334Z" fill="url(#paint1_linear_30642_13739)"/>
<path d="M112.936 0.67334H126.776V14.5137H112.936V0.67334ZM126.776 0.67334H140.616V14.5137H126.776V0.67334ZM140.616 0.67334H154.457V14.5137H140.616V0.67334ZM140.616 14.5137H154.457V28.3541H140.616V14.5137ZM140.616 28.3541H154.457V42.1946H140.616V28.3541ZM140.616 42.1946H154.457V56.035H140.616V42.1946ZM140.616 56.035H154.457V69.8754H140.616V56.035ZM126.776 56.035H140.616V69.8754H126.776V56.035ZM112.936 56.035H126.776V69.8754H112.936V56.035ZM112.936 42.1946H126.776V56.035H112.936V42.1946ZM112.936 28.3541H126.776V42.1946H112.936V28.3541ZM112.936 14.5137H126.776V28.3541H112.936V14.5137Z" fill="url(#paint2_linear_30642_13739)"/>
<path d="M56.6445 0.67334H70.4849V14.5137H56.6445V0.67334ZM70.4849 0.67334H84.3254V14.5137H70.4849V0.67334ZM84.3254 0.67334H98.1658V14.5137H84.3254V0.67334ZM84.3254 14.5137H98.1658V28.3541H84.3254V14.5137ZM84.3254 28.3541H98.1658V42.1946H84.3254V28.3541ZM84.3254 42.1946H98.1658V56.035H84.3254V42.1946ZM84.3254 56.035H98.1658V69.8754H84.3254V56.035ZM70.4849 56.035H84.3254V69.8754H70.4849V56.035ZM56.6445 56.035H70.4849V69.8754H56.6445V56.035ZM56.6445 42.1946H70.4849V56.035H56.6445V42.1946ZM56.6445 28.3541H70.4849V42.1946H56.6445V28.3541ZM56.6445 14.5137H70.4849V28.3541H56.6445V14.5137Z" fill="url(#paint3_linear_30642_13739)"/>
<path d="M28.0363 0.67334H41.8767V14.5137H28.0363V0.67334ZM14.1959 0.67334H28.0363V14.5137H14.1959V0.67334ZM0.355469 14.5137H14.1959V28.3541H0.355469V14.5137ZM0.355469 28.3541H14.1959V42.1946H0.355469V28.3541ZM14.1959 28.3541H28.0363V42.1946H14.1959V28.3541ZM28.0363 28.3541H41.8767V42.1946H28.0363V28.3541ZM28.0363 42.1946H41.8767V56.035H28.0363V42.1946ZM28.0363 56.035H41.8767V69.8754H28.0363V56.035ZM14.1959 56.035H28.0363V69.8754H14.1959V56.035ZM0.355469 56.035H14.1959V69.8754H0.355469V56.035ZM0.355469 0.67334H14.1959V14.5137H0.355469V0.67334Z" fill="url(#paint4_linear_30642_13739)"/>
<defs>
<linearGradient id="paint0_linear_30642_13739" x1="-366.39" y1="-25.1075" x2="110.268" y2="8.28324" gradientUnits="userSpaceOnUse">
<stop stop-color="#F3F2FF"/>
<stop offset="1" stop-color="#FF6501"/>
</linearGradient>
<linearGradient id="paint1_linear_30642_13739" x1="-366.391" y1="-25.1075" x2="110.267" y2="8.28325" gradientUnits="userSpaceOnUse">
<stop stop-color="#F3F2FF"/>
<stop offset="1" stop-color="#FF6501"/>
</linearGradient>
<linearGradient id="paint2_linear_30642_13739" x1="-366.391" y1="-25.1075" x2="110.268" y2="8.28324" gradientUnits="userSpaceOnUse">
<stop stop-color="#F3F2FF"/>
<stop offset="1" stop-color="#FF6501"/>
</linearGradient>
<linearGradient id="paint3_linear_30642_13739" x1="-366.392" y1="-25.1075" x2="110.266" y2="8.28325" gradientUnits="userSpaceOnUse">
<stop stop-color="#F3F2FF"/>
<stop offset="1" stop-color="#FF6501"/>
</linearGradient>
<linearGradient id="paint4_linear_30642_13739" x1="-366.391" y1="-25.1075" x2="110.267" y2="8.28325" gradientUnits="userSpaceOnUse">
<stop stop-color="#F3F2FF"/>
<stop offset="1" stop-color="#FF6501"/>
</linearGradient>
</defs>
</svg>
