<svg width="641" height="561" viewBox="0 0 641 561" fill="none" xmlns="http://www.w3.org/2000/svg">
<rect x="0.666992" y="542.544" width="640" height="17.5" fill="#BBBBBE"/>
<rect x="340.667" y="35.0444" width="20" height="35" fill="#BBBBBE"/>
<rect x="360.667" y="70.0444" width="20" height="35" fill="#BBBBBE"/>
<rect x="380.667" y="105.044" width="20" height="35" fill="#BBBBBE"/>
<rect x="400.667" y="140.044" width="20" height="35" fill="#BBBBBE"/>
<rect x="420.667" y="175.044" width="20" height="35" fill="#BBBBBE"/>
<rect x="440.667" y="210.044" width="20" height="35" fill="#BBBBBE"/>
<rect x="460.667" y="245.044" width="20" height="35" fill="#BBBBBE"/>
<rect x="480.667" y="280.044" width="20" height="35" fill="#BBBBBE"/>
<rect x="500.667" y="315.044" width="20" height="35" fill="#BBBBBE"/>
<rect x="520.667" y="350.044" width="20" height="35" fill="#BBBBBE"/>
<rect x="540.667" y="385.044" width="20" height="35" fill="#BBBBBE"/>
<rect x="560.667" y="420.044" width="20" height="35" fill="#BBBBBE"/>
<rect x="580.667" y="455.044" width="20" height="35" fill="#BBBBBE"/>
<rect x="600.667" y="490.044" width="20" height="35" fill="#BBBBBE"/>
<rect x="620.667" y="525.044" width="20" height="35" fill="#BBBBBE"/>
<rect width="20" height="35" transform="matrix(-1 0 0 1 300.667 35.0444)" fill="#BBBBBE"/>
<rect width="20" height="35" transform="matrix(-1 0 0 1 280.667 70.0444)" fill="#BBBBBE"/>
<rect width="20" height="35" transform="matrix(-1 0 0 1 260.667 105.044)" fill="#BBBBBE"/>
<rect width="20" height="35" transform="matrix(-1 0 0 1 240.667 140.044)" fill="#BBBBBE"/>
<rect width="20" height="35" transform="matrix(-1 0 0 1 220.667 175.044)" fill="#BBBBBE"/>
<rect width="20" height="35" transform="matrix(-1 0 0 1 200.667 210.044)" fill="#BBBBBE"/>
<rect width="20" height="35" transform="matrix(-1 0 0 1 180.667 245.044)" fill="#BBBBBE"/>
<rect width="20" height="35" transform="matrix(-1 0 0 1 160.667 280.044)" fill="#BBBBBE"/>
<rect width="20" height="35" transform="matrix(-1 0 0 1 140.667 315.044)" fill="#BBBBBE"/>
<rect width="20" height="35" transform="matrix(-1 0 0 1 120.667 350.044)" fill="#BBBBBE"/>
<rect width="20" height="35" transform="matrix(-1 0 0 1 100.667 385.044)" fill="#BBBBBE"/>
<rect width="20" height="35" transform="matrix(-1 0 0 1 80.667 420.044)" fill="#BBBBBE"/>
<rect width="20" height="35" transform="matrix(-1 0 0 1 60.667 455.044)" fill="#BBBBBE"/>
<rect width="20" height="35" transform="matrix(-1 0 0 1 40.667 490.044)" fill="#BBBBBE"/>
<rect width="20" height="35" transform="matrix(-1 0 0 1 20.667 525.044)" fill="#BBBBBE"/>
<rect width="40" height="35" transform="matrix(-1 0 0 1 340.667 0.0444336)" fill="#BBBBBE"/>
</svg>
