<svg width="640" height="561" viewBox="0 0 640 561" fill="none" xmlns="http://www.w3.org/2000/svg">
<rect y="542.544" width="640" height="17.5" fill="#BBBBBE"/>
<rect x="340" y="35.0444" width="20" height="35" fill="#BBBBBE"/>
<rect x="360" y="70.0444" width="20" height="35" fill="#BBBBBE"/>
<rect x="380" y="105.044" width="20" height="35" fill="#BBBBBE"/>
<rect x="400" y="140.044" width="20" height="35" fill="#BBBBBE"/>
<rect x="420" y="175.044" width="20" height="35" fill="#BBBBBE"/>
<rect x="440" y="210.044" width="20" height="35" fill="#BBBBBE"/>
<rect x="460" y="245.044" width="20" height="35" fill="#BBBBBE"/>
<rect x="480" y="280.044" width="20" height="35" fill="#BBBBBE"/>
<rect x="500" y="315.044" width="20" height="35" fill="#BBBBBE"/>
<rect x="520" y="350.044" width="20" height="35" fill="#BBBBBE"/>
<rect x="540" y="385.044" width="20" height="35" fill="#BBBBBE"/>
<rect x="560" y="420.044" width="20" height="35" fill="#BBBBBE"/>
<rect x="580" y="455.044" width="20" height="35" fill="#BBBBBE"/>
<rect x="600" y="490.044" width="20" height="35" fill="#BBBBBE"/>
<rect x="620" y="525.044" width="20" height="35" fill="#BBBBBE"/>
<rect width="20" height="35" transform="matrix(-1 0 0 1 300 35.0444)" fill="#BBBBBE"/>
<rect width="20" height="35" transform="matrix(-1 0 0 1 280 70.0444)" fill="#BBBBBE"/>
<rect width="20" height="35" transform="matrix(-1 0 0 1 260 105.044)" fill="#BBBBBE"/>
<rect width="20" height="35" transform="matrix(-1 0 0 1 240 140.044)" fill="#BBBBBE"/>
<rect width="20" height="35" transform="matrix(-1 0 0 1 220 175.044)" fill="#BBBBBE"/>
<rect width="20" height="35" transform="matrix(-1 0 0 1 200 210.044)" fill="#BBBBBE"/>
<rect width="20" height="35" transform="matrix(-1 0 0 1 180 245.044)" fill="#BBBBBE"/>
<rect width="20" height="35" transform="matrix(-1 0 0 1 160 280.044)" fill="#BBBBBE"/>
<rect width="20" height="35" transform="matrix(-1 0 0 1 140 315.044)" fill="#BBBBBE"/>
<rect width="20" height="35" transform="matrix(-1 0 0 1 120 350.044)" fill="#BBBBBE"/>
<rect width="20" height="35" transform="matrix(-1 0 0 1 100 385.044)" fill="#BBBBBE"/>
<rect width="20" height="35" transform="matrix(-1 0 0 1 80 420.044)" fill="#BBBBBE"/>
<rect width="20" height="35" transform="matrix(-1 0 0 1 60 455.044)" fill="#BBBBBE"/>
<rect width="20" height="35" transform="matrix(-1 0 0 1 40 490.044)" fill="#BBBBBE"/>
<rect width="20" height="35" transform="matrix(-1 0 0 1 20 525.044)" fill="#BBBBBE"/>
<rect width="40" height="35" transform="matrix(-1 0 0 1 340 0.0444336)" fill="#BBBBBE"/>
</svg>
